<svg height="512pt" viewBox="0 0 512.00073 512" width="512pt" xmlns="http://www.w3.org/2000/svg"><path d="m371.375 140.621094c-63.722656-63.722656-167.035156-63.722656-230.757812 0-63.722657 63.722656-63.722657 167.039062 0 230.761718 63.722656 63.71875 167.035156 63.71875 230.757812 0 63.722656-63.722656 63.722656-167.039062 0-230.761718zm0 0" fill="#49b2a5"/><path d="m395.082031 341.292969c-11.675781 7.140625-24.128906 12.730469-37.046875 16.707031-46.738281 14.414062-99.417968 7.722656-142.433594-22.726562-70.582031-49.976563-89.449218-145.800782-44.789062-218.453126 39.75-24.308593 88.578125-30.601562 133.472656-16.6875 16.027344 4.960938 31.554688 12.5 45.996094 22.726563 70.578125 49.972656 89.457031 145.792969 44.800781 218.433594zm0 0" fill="#6fc9c0"/><path d="m186.378906 189.378906c-13.75 13.746094-27.496094 21.972656-38.871094 28.519532l-.003906.003906c-15.953125 9.175781-27.222656 15.03125-27.222656 28.117187 0 55.46875 110.011719 95.09375 41.4375 143.140625-73.523438-52.074218-90.9375-153.882812-38.875-227.433594 10.609375-14.964843 23.261719-27.617187 37.339844-37.828124 1.734375.519531 3.578125 1.171874 5.464844 1.949218 21.644531 8.761719 51.101562 33.15625 20.730468 63.53125zm0 0" fill="#2c8c2c"/><path d="m304.28125 393.542969c7.851562 2.425781 15.574219 5.476562 23.121094 9.164062-7.527344 3.667969-15.304688 6.726563-23.25 9.171875-38.75 11.957032-81.574219 9.402344-119.582032-9.171875 36.949219-17.949219 79.875-21.515625 119.710938-9.164062zm0 0" fill="#e6e6e6"/><path d="m395.082031 341.292969-.007812.007812c-1.863281 3.027344-3.839844 6.03125-5.929688 8.976563-3.667969 5.179687-7.582031 10.078125-11.71875 14.691406l-.007812.003906c-7.203125-1.210937-11.792969-4.199218-14.714844-8.492187-11.964844-17.550781 4.332031-56.757813-14.648437-83.320313-20.640626-28.886718 30.683593-54.277344 23.601562-73.167968-7.082031-18.875-64.910156.007812-64.910156-23.59375 0-23.605469 11.8125-42.488282 43.527344-53.535157 70.585937 49.96875 89.457031 145.792969 44.808593 218.429688zm0 0" fill="#2c8c2c"/><path d="m395.082031 341.292969-.007812.007812c-10.257813 6.273438-21.117188 11.347657-32.371094 15.179688-11.964844-17.550781 4.332031-56.757813-14.648437-83.320313-20.640626-28.886718 30.683593-54.277344 23.601562-73.167968-7.082031-18.875-64.910156.007812-64.910156-23.59375 0-23.605469 11.8125-42.488282 43.527344-53.535157 70.585937 49.96875 89.457031 145.792969 44.808593 218.429688zm0 0" fill="#3fa543"/><path d="m186.378906 189.378906c-13.75 13.746094-27.496094 21.972656-38.871094 28.519532-3.035156-31.046876 2.78125-63.085938 18.140626-92.050782 21.644531 8.761719 51.101562 33.15625 20.730468 63.53125zm0 0" fill="#3fa543"/><path d="m211.867188 251.085938c-9.722657-9.722657-25.484376-9.722657-35.210938 0-9.722656 9.726562-9.722656 25.488281 0 35.210937 9.726562 9.722656 25.488281 9.722656 35.210938 0 9.722656-9.722656 9.722656-25.484375 0-35.210937zm0 0" fill="#e6e6e6"/><path d="m211.871094 251.089844c5.820312 5.816406 8.152344 13.800781 7.003906 21.347656-7.546875 1.152344-15.53125-1.183594-21.351562-7.003906-5.8125-5.8125-8.148438-13.792969-7-21.347656 7.550781-1.144532 15.535156 1.191406 21.347656 7.003906zm0 0" fill="#545e63"/><path d="m286.292969 176.664062c-9.722657-9.722656-25.484375-9.722656-35.207031 0-9.722657 9.722657-9.722657 25.484376 0 35.210938 9.722656 9.722656 25.484374 9.722656 35.207031 0 9.722656-9.726562 9.722656-25.488281 0-35.210938zm0 0" fill="#e6e6e6"/><path d="m251.085938 211.871094c-5.816407-5.816406-8.152344-13.800782-7-21.347656 7.546874-1.152344 15.527343 1.183593 21.347656 7.003906 5.8125 5.8125 8.148437 13.796875 7.003906 21.347656-7.554688 1.144531-15.539062-1.191406-21.351562-7.003906zm0 0" fill="#545e63"/><path d="m500.789062 247.214844c-4.117187-9.964844-8.007812-19.378906-9.4375-28.511719-1.410156-8.953125-.597656-18.984375.257813-29.605469 1.386719-17.171875 2.816406-34.929687-5.125-50.539062-7.609375-14.960938-22.496094-24.152344-36.886719-33.039063-8.957031-5.53125-18.21875-11.246093-25.042968-18.074219-6.824219-6.824218-12.542969-16.085937-18.070313-25.042968-8.890625-14.398438-18.078125-29.285156-33.042969-36.894532-4.613281-2.347656-9.578125-3.972656-15.183594-4.972656-4.136718-.734375-8.089843 2.023438-8.828124 6.160156-.734376 4.136719 2.019531 8.089844 6.160156 8.824219 4.109375.734375 7.691406 1.894531 10.953125 3.550781 11.152343 5.675782 18.84375 18.136719 26.988281 31.328126 5.988281 9.699218 12.179688 19.730468 20.261719 27.808593 8.078125 8.082031 18.105469 14.273438 27.804687 20.261719 13.1875 8.144531 25.644532 15.835938 31.320313 26.988281 5.992187 11.777344 4.789062 26.660157 3.519531 42.414063-.890625 11.039062-1.8125 22.457031-.125 33.195312 1.714844 10.910156 6.132812 21.609375 10.40625 31.957032 5.996094 14.515624 11.660156 28.226562 9.644531 41.054687-1.992187 12.664063-11.550781 23.9375-21.675781 35.875-7.269531 8.574219-14.789062 17.4375-19.851562 27.386719-4.824219 9.488281-7.433594 20.472656-9.957032 31.097656-3.675781 15.488281-7.152344 30.121094-16.734375 39.703125-9.589843 9.585937-24.21875 13.058594-39.710937 16.738281-10.621094 2.519532-21.605469 5.128906-31.09375 9.957032-9.945313 5.058593-18.8125 12.578124-27.382813 19.851562-11.9375 10.121094-23.210937 19.683594-35.875 21.675781-12.84375 2.011719-26.5625-3.652343-41.085937-9.652343-10.339844-4.269532-21.027344-8.683594-31.925782-10.402344-10.734374-1.679688-22.148437-.757813-33.183593.132812-15.761719 1.273438-30.648438 2.476563-42.425781-3.515625-11.167969-5.679687-18.863282-18.144531-27.007813-31.34375-5.984375-9.691406-12.167969-19.714843-20.242187-27.792969-8.074219-8.070312-18.097657-14.253906-27.789063-20.238281-13.199219-8.148437-25.664063-15.84375-31.347656-27.011719-5.988281-11.777343-4.789063-26.664062-3.511719-42.425781.890625-11.035156 1.8125-22.445312.128906-33.183593-1.714844-10.902344-6.132812-21.59375-10.40625-31.933594-5.996094-14.523438-11.664062-28.242188-9.644531-41.074219 1.992187-12.667969 11.554687-23.941406 21.675781-35.875 7.273438-8.574219 14.792969-17.441406 19.851563-27.386719 4.824219-9.492187 7.433593-20.472656 9.953125-31.097656 3.679687-15.488281 7.152344-30.121094 16.742187-39.707031 9.582031-9.585938 24.210938-13.058594 39.699219-16.734375 10.621094-2.523438 21.605469-5.132813 31.09375-9.957032 9.945312-5.058593 18.808594-12.578124 27.378906-19.847656 11.941406-10.125 23.214844-19.6875 35.886719-21.679687 12.832031-2.011719 26.542969 3.652343 41.058594 9.648437 10.34375 4.269532 21.039062 8.6875 31.941406 10.402344 10.78125 1.691406 22.234375.761719 33.316406-.136719l3.390625-.273437c4.191406-.328125 7.316406-3.992188 6.988282-8.183594-.328126-4.191406-3.996094-7.320312-8.183594-6.988281l-3.425782.273437c-10.664062.867188-20.734374 1.683594-29.722656.273438-9.121094-1.433594-18.53125-5.320313-28.492187-9.4375-15.820313-6.535156-32.1875-13.289063-49.230469-10.613282-16.894531 2.652344-30.355469 14.066407-43.371094 25.105469-8.269531 7.015625-16.078125 13.636719-24.4375 17.890625-7.871094 4.003906-17.503906 6.289063-27.707031 8.710938-16.871094 4.007812-34.316406 8.148437-46.945313 20.785156-12.640624 12.632812-16.78125 30.082031-20.789062 46.953125-2.421875 10.203125-4.710938 19.839844-8.710938 27.710937-4.25 8.359376-10.878906 16.171876-17.894531 24.441407-11.035156 13.011719-22.449219 26.46875-25.101562 43.355469-2.6875 17.054687 4.074219 33.421874 10.613281 49.25 4.113281 9.957031 8 19.363281 9.433594 28.484374 1.40625 8.949219.59375 18.980469-.261719 29.597657-1.390625 17.175781-2.824219 34.9375 5.117187 50.550781 7.617188 14.976562 22.511719 24.171875 36.917969 33.0625 8.949219 5.523438 18.203125 11.234375 25.019531 18.050781 6.816407 6.816407 12.53125 16.074219 18.054688 25.023438 8.890625 14.402343 18.085938 29.300781 33.058594 36.914062 15.609375 7.945313 33.375 6.511719 50.550781 5.121094 10.621094-.859375 20.648437-1.667969 29.597656-.265625 9.117188 1.433594 18.519531 5.316406 28.476563 9.429688 13.390625 5.53125 27.164062 11.222656 41.425781 11.222656 2.59375 0 5.207031-.191406 7.832031-.601563 16.890625-2.65625 30.34375-14.070312 43.355469-25.105469 8.269531-7.015624 16.082031-13.640624 24.441406-17.890624 7.871094-4.003907 17.507813-6.292969 27.710938-8.714844 16.871093-4.003906 34.316406-8.144532 46.953125-20.785156 12.632812-12.632813 16.777344-30.078126 20.78125-46.949219 2.425781-10.203125 4.714844-19.84375 8.71875-27.714844 4.25-8.359375 10.878906-16.171875 17.890625-24.441406 11.039062-13.011719 22.449219-26.46875 25.105469-43.359375 2.679687-17.042969-4.078126-33.398438-10.609376-49.21875zm0 0"/><path d="m451.976562 156.148438c-6.507812-12.792969-19.707031-19.863282-32.472656-26.699219-8.554687-4.578125-16.632812-8.90625-22.339844-14.613281-5.707031-5.707032-10.03125-13.785157-14.613281-22.339844-6.835937-12.765625-13.902343-25.964844-26.699219-32.472656-13.332031-6.78125-28.445312-4.625-43.066406-2.535157-9.300781 1.328125-18.089844 2.578125-25.550781 1.40625-7.613281-1.195312-15.679687-5.121093-24.21875-9.277343-13.191406-6.421876-26.832031-13.058594-41.398437-10.769532-14.429688 2.265625-25.328126 12.726563-35.871094 22.839844-6.898438 6.617188-13.414063 12.871094-20.398438 16.425781-6.554687 3.332031-15.160156 4.828125-24.273437 6.410157-14.652344 2.542968-29.804688 5.175781-40.589844 15.960937-10.785156 10.789063-13.417969 25.9375-15.960937 40.59375-1.582032 9.109375-3.074219 17.714844-6.410157 24.269531-3.554687 6.984375-9.804687 13.5-16.425781 20.398438-10.113281 10.542968-20.574219 21.441406-22.839844 35.871094-2.289062 14.570312 4.347656 28.210937 10.769532 41.398437 4.15625 8.542969 8.082031 16.605469 9.277343 24.21875 1.171875 7.464844-.082031 16.25-1.40625 25.550781-2.089843 14.621094-4.246093 29.738282 2.535157 43.070313 6.507812 12.792969 19.707031 19.859375 32.472656 26.695312 8.554687 4.582031 16.632812 8.90625 22.339844 14.613281 5.707031 5.707032 10.035156 13.789063 14.613281 22.339844 6.835937 12.765625 13.90625 25.964844 26.695312 32.472656 13.332031 6.78125 28.453125 4.625 43.070313 2.539063 9.304687-1.328125 18.089844-2.582031 25.554687-1.410156 7.609375 1.195312 15.675781 5.121093 24.214844 9.277343 11.367187 5.535157 23.074219 11.234376 35.417969 11.234376 1.976562 0 3.96875-.148438 5.980468-.464844 14.429688-2.265625 25.328126-12.722656 35.871094-22.839844 6.898438-6.617188 13.414063-12.871094 20.398438-16.425781 6.554687-3.332031 15.160156-4.828125 24.269531-6.410157 14.65625-2.542968 29.808594-5.175781 40.59375-15.960937s13.417969-25.9375 15.960937-40.589844c1.582032-9.113281 3.078126-17.714843 6.410157-24.273437 3.554687-6.984375 9.808593-13.5 16.425781-20.398438 10.117188-10.542968 20.574219-21.441406 22.839844-35.871094 2.289062-14.570312-4.347656-28.207031-10.769532-41.398437-4.15625-8.539063-8.082031-16.605469-9.277343-24.214844-1.171875-7.464843.082031-16.25 1.40625-25.550781 2.085937-14.621094 4.246093-29.738281-2.535157-43.070312zm6.140626 131.871093c-1.523438 9.707031-9.910157 18.445313-18.785157 27.695313-7.097656 7.394531-14.4375 15.042968-19.011719 24.039062-4.371093 8.59375-6.136718 18.75-7.839843 28.566406-2.238281 12.886719-4.351563 25.054688-11.730469 32.433594-7.378906 7.375-19.546875 9.488282-32.433594 11.726563-9.816406 1.707031-19.96875 3.46875-28.566406 7.839843-8.992188 4.578126-16.640625 11.914063-24.035156 19.011719-9.253906 8.875-17.988282 17.261719-27.695313 18.785157-9.851562 1.546874-20.789062-3.78125-32.375-9.417969-9.171875-4.464844-18.65625-9.082031-28.515625-10.628907-2.914062-.457031-5.886718-.644531-8.886718-.644531-7.007813 0-14.175782 1.019531-21.175782 2.019531-12.84375 1.835938-24.976562 3.566407-34.019531-1.035156-8.53125-4.339844-14.1875-14.90625-20.179687-26.089844-4.902344-9.152343-9.96875-18.617187-17.269532-25.917968-7.300781-7.296875-16.765625-12.367188-25.917968-17.269532-11.183594-5.988281-21.75-11.644531-26.089844-20.179687-4.601563-9.042969-2.871094-21.171875-1.039063-34.015625 1.429688-10.003906 2.90625-20.347656 1.378907-30.066406-1.550782-9.859375-6.164063-19.34375-10.628907-28.515625-5.640625-11.585938-10.96875-22.527344-9.421875-32.375 1.527344-9.703125 9.910156-18.441407 18.789063-27.695313 7.09375-7.394531 14.433593-15.039062 19.007812-24.035156 4.375-8.59375 6.136719-18.75 7.84375-28.566406 2.234375-12.886719 4.351563-25.054688 11.726563-32.433594 7.378906-7.378906 19.546875-9.492188 32.433594-11.726562 9.816406-1.707032 19.972656-3.46875 28.566406-7.84375 8.996094-4.574219 16.640625-11.914063 24.035156-19.007813 9.253906-8.878906 17.992188-17.261719 27.699219-18.789063 9.839843-1.546874 20.785156 3.78125 32.371093 9.421876 9.171876 4.464843 18.65625 9.078124 28.515626 10.628906 9.71875 1.527344 20.0625.050781 30.066406-1.378906 12.839844-1.832032 24.972656-3.566407 34.015625 1.039062 8.535156 4.339844 14.191406 14.902344 20.179687 26.089844 4.902344 9.152344 9.972656 18.617187 17.269532 25.914062 7.300781 7.300782 16.765624 12.367188 25.917968 17.269532 11.1875 5.992187 21.75 11.648437 26.089844 20.179687 4.601562 9.046875 2.871094 21.175781 1.039062 34.019531-1.429687 10-2.90625 20.34375-1.378906 30.0625 1.550782 9.863282 6.167969 19.34375 10.628906 28.515625 5.640626 11.585938 10.96875 22.53125 9.421876 32.375zm0 0"/><path d="m135.242188 135.238281c-21.566407 21.566407-36.980469 48.488281-44.574219 77.859375-7.367188 28.5-7.253907 58.601563.328125 87.042969 1.082031 4.0625 5.25 6.476563 9.316406 5.394531 4.058594-1.085937 6.472656-5.253906 5.390625-9.316406-6.910156-25.914062-7.015625-53.34375-.300781-79.3125 6.914062-26.742188 20.953125-51.261719 40.601562-70.90625 4.933594-4.9375 10.125-9.460938 15.519532-13.59375 5.820312 2.207031 11.890624 5.546875 16.800781 9.324219 4.855469 3.738281 11.039062 9.75 12.90625 17.167969 1.980469 7.882812-1.460938 16.324218-10.230469 25.09375-13.894531 13.894531-28.027344 22-39.382812 28.515624-15.523438 8.90625-28.933594 16.59375-28.933594 33.511719 0 25.109375 19.289062 46.632813 36.304687 65.617188 14.980469 16.714843 29.128907 32.5 27.503907 46.648437-.824219 7.164063-5.6875 14.203125-14.824219 21.429688-5.472657-4.191406-10.710938-8.761719-15.667969-13.71875-12.480469-12.480469-22.65625-26.808594-30.238281-42.582032-1.824219-3.789062-6.371094-5.382812-10.160157-3.5625-3.785156 1.824219-5.378906 6.371094-3.558593 10.15625 8.328125 17.324219 19.496093 33.050782 33.195312 46.75 32.257813 32.257813 75.144531 50.023438 120.761719 50.023438s88.507812-17.765625 120.765625-50.023438c66.585937-66.585937 66.585937-174.933593 0-241.523437-66.589844-66.585937-174.9375-66.585937-241.523437.003906zm56.371093 224.789063c2.410157-20.949219-13.960937-39.210938-31.289062-58.542969-15.9375-17.785156-32.417969-36.171875-32.417969-55.460937 0-7.773438 6.527344-11.84375 21.285156-20.308594 12.140625-6.964844 27.246094-15.628906 42.574219-30.957032 8.8125-8.8125 18.433594-22.832031 14.222656-39.570312-3.847656-15.300781-17.554687-26.253906-29.769531-32.742188 48.394531-28.902343 109.222656-29.230468 157.898438-.980468-23.21875 11.890625-34.972657 30.316406-34.972657 54.929687 0 5.246094 2.03125 14.632813 15.621094 18.609375 7.007813 2.046875 15.769531 2.363282 24.242187 2.667969 8.96875.324219 23.980469.867187 25.53125 5 1.429688 3.8125-5.417968 12.402344-10.917968 19.304687-11.453125 14.375-27.144532 34.0625-11.753906 55.613282 9.109374 12.75 8.773437 29.488281 8.445312 45.679687-.21875 10.863281-.425781 21.121094 2.363281 29.726563 2.152344 6.636718 5.925781 11.648437 11.257813 15.019531-11 10.613281-23.296875 19.414063-36.527344 26.265625-6.78125-3.128906-13.785156-5.824219-20.863281-8.011719-40.371094-12.519531-83.523438-9.652343-121.941407 8.011719-3.375-1.746094-6.683593-3.617188-9.925781-5.617188 10.1875-8.988281 15.761719-18.421874 16.9375-28.636718zm12.550781 42.722656c31.507813-11.160156 65.664063-11.929688 97.878907-1.941406 1.949219.605468 3.890625 1.25 5.820312 1.933594-16.4375 5.796874-33.914062 8.820312-51.859375 8.820312-17.9375 0-35.410156-3.023438-51.839844-8.8125zm170.605469-46.28125c-8.941406-3.253906-9.65625-12.191406-9.238281-32.894531.359375-17.800781.761719-37.976563-11.277344-54.832031-8.128906-11.378907-1.164062-21.679688 11.273438-37.28125 8.710937-10.9375 17.722656-22.242188 13.261718-34.136719-5.113281-13.632813-22.457031-14.257813-39.234374-14.863281-7.539063-.273438-15.335938-.554688-20.515626-2.066407-4.671874-1.367187-4.671874-2.765625-4.671874-4 0-21.417969 11.078124-35.789062 34.769531-45 5.882812 4.402344 11.523437 9.261719 16.867187 14.605469 57.574219 57.574219 60.488282 149.414062 8.765625 210.46875zm0 0"/><path d="m217.253906 291.679688c6.140625-6.140626 9.519532-14.300782 9.519532-22.984376 0-8.683593-3.378907-16.847656-9.519532-22.988281s-14.304687-9.519531-22.988281-9.519531-16.847656 3.378906-22.984375 9.519531c-6.140625 6.140625-9.523438 14.304688-9.523438 22.988281 0 8.683594 3.382813 16.84375 9.523438 22.984376 6.339844 6.339843 14.660156 9.507812 22.984375 9.507812 8.324219-.003906 16.648437-3.171875 22.988281-9.507812zm-10.761718-35.210938c2.273437 2.277344 3.820312 5.085938 4.558593 8.136719-3.046875-.738281-5.882812-2.292969-8.144531-4.558594-2.300781-2.296875-3.851562-5.105469-4.582031-8.144531 3.0625.734375 5.882812 2.285156 8.167969 4.566406-.003907 0 0 0 0 0zm-29.515626 12.226562c0-4.621093 1.800782-8.960937 5.066407-12.226562.460937-.460938.953125-.886719 1.457031-1.289062 1.363281 5.847656 4.3125 11.300781 8.644531 15.628906 4.332031 4.335937 9.785157 7.292968 15.632813 8.65625-.402344.503906-.828125.992187-1.289063 1.453125-3.265625 3.265625-7.605469 5.0625-12.222656 5.0625s-8.957031-1.796875-12.222656-5.0625-5.066407-7.605469-5.066407-12.222657zm0 0"/><path d="m268.691406 226.777344c8.683594 0 16.847656-3.382813 22.988282-9.523438 12.671874-12.675781 12.671874-33.296875 0-45.972656-12.675782-12.675781-33.300782-12.675781-45.972657 0-6.140625 6.140625-9.523437 14.304688-9.523437 22.988281 0 8.683594 3.382812 16.84375 9.523437 22.984375 6.136719 6.140625 14.300781 9.523438 22.984375 9.523438zm-12.222656-20.285156c-2.277344-2.28125-3.824219-5.089844-4.5625-8.140626 3.046875.738282 5.886719 2.292969 8.148438 4.558594 2.261718 2.261719 3.816406 5.09375 4.554687 8.144532-3.054687-.742188-5.863281-2.285157-8.140625-4.5625zm12.222656-29.511719c4.617188 0 8.960938 1.796875 12.226563 5.0625 6.738281 6.742187 6.738281 17.710937 0 24.449219-.464844.460937-.953125.886718-1.453125 1.289062-1.363282-5.851562-4.316406-11.300781-8.648438-15.632812-4.332031-4.335938-9.789062-7.289063-15.636718-8.648438.402343-.503906.824218-.992188 1.289062-1.457031 3.265625-3.265625 7.605469-5.0625 12.222656-5.0625zm0 0"/><path d="m286.300781 244.875c-4.667969 4.667969-5.320312 9.203125-5.75 12.203125-.300781 2.085937-.363281 2.519531-1.449219 3.605469-1.082031 1.085937-1.519531 1.148437-3.605468 1.445312-3 .433594-7.535156 1.085938-12.199219 5.753906-4.667969 4.664063-5.316406 9.199219-5.75 12.199219-.300781 2.085938-.363281 2.519531-1.445313 3.605469-1.082031 1.082031-1.519531 1.144531-3.601562 1.441406-3 .433594-7.535156 1.082032-12.199219 5.75-2.972656 2.972656-2.972656 7.789063 0 10.761719 1.484375 1.484375 3.433594 2.226563 5.378907 2.226563 1.949218 0 3.898437-.742188 5.382812-2.226563 1.082031-1.082031 1.515625-1.144531 3.601562-1.445313 3-.429687 7.535157-1.082031 12.199219-5.746093 4.667969-4.667969 5.316407-9.203125 5.75-12.203125.300781-2.085938.363281-2.519532 1.445313-3.601563 1.085937-1.085937 1.519531-1.148437 3.605468-1.449219 3-.429687 7.535157-1.082031 12.203126-5.75 4.664062-4.667968 5.316406-9.199218 5.746093-12.203124.300781-2.085938.363281-2.519532 1.449219-3.605469 1.085938-1.082031 1.519531-1.144531 3.605469-1.445313 3-.429687 7.535156-1.082031 12.203125-5.75 2.972656-2.972656 2.972656-7.789062 0-10.761718-2.972656-2.972657-7.789063-2.972657-10.761719 0-1.085937 1.085937-1.519531 1.144531-3.609375 1.445312-3 .433594-7.535156 1.085938-12.199219 5.75zm0 0"/></svg>